<svg viewBox="0 0 512 512" xmlns="http://www.w3.org/2000/svg" fill-rule="evenodd" clip-rule="evenodd" stroke-linejoin="round" stroke-miterlimit="2"><path d="M6 118.468C6 56.356 56.356 6 118.468 6H393.53C455.643 6 506 56.356 506 118.468V393.53C505.999 455.643 455.643 506 393.53 506H118.468C56.356 505.999 6 455.643 6 393.53V118.468z" fill="#f90" fill-rule="nonzero"/><path d="M6 159.843c0-50.206 40.7-90.906 90.912-90.906h318.18c50.207 0 90.907 40.7 90.907 90.906V393.53C505.999 455.643 455.643 506 393.53 506H118.468C56.356 505.999 6 455.643 6 393.53V159.843z" fill="#e43225" fill-rule="nonzero"/><path d="M145.28 149.78c1.888 7.7.826 16.013 2.676 23.838 6.469-4.731 10.775-12.543 9.894-20.68-.132-14.563-16.513-25.976-30.22-21.076-8.618 2.463-14.993 10.2-16.437 18.938-1.725 10.006 4.282 20.237 13.22 24.812-.882-8.619-2.957-17.706-.638-26.137 3.537-9.194 18.23-9.007 21.506.306zm255.056 10.438c3.144-11.3-3.693-24.4-14.9-28.018-10.774-4.232-24.112 1.156-28.862 11.656-5.294 9.719-2.094 23.55 7.588 29.244 1.912-7.8.5-16.163 2.768-23.744 3.619-9.056 18.131-8.794 21.431.387 2.1 8.207.2 16.825-.593 25.106 6.575-2.03 10.675-8.312 12.562-14.606l.006-.025z" fill="#b32100" fill-rule="nonzero"/><path d="M366.962 149.35c-2.282 7.662-.87 15.95-2.77 23.75-5.637 33.862-28.312 64.13-59.012 79.3a109.319 109.319 0 01-98.506-.126c-30.418-15.13-52.912-45.143-58.693-78.643-1.85-7.838-.8-16.063-2.681-23.838-3.263-9.237-17.963-9.506-21.507-.312-2.306 8.512-.23 17.531.644 26.137 6.463 41.875 34.481 79.475 72.437 98.138a133.42 133.42 0 0056.032 13.8 133.357 133.357 0 0056.612-11.138c41.05-17.725 71.737-57.312 78.3-101.6.793-8.281 2.693-16.906.587-25.106-3.312-9.181-17.812-9.431-21.437-.381l-.006.019zM164.893 391.061v-56.324h33.294v7.062h-26.4v17.319h23.712v7.062h-23.712v17.656h28.25v7.063h-35.144v.162zM235.018 391.061L223.587 376.1l-11.438 14.962h-8.068l15.637-20.006-16.481-20.68h9.081l11.269 15.468 11.431-15.469h8.913l-15.638 20.681 14.794 20.006h-8.069zM254.18 385.011v27.744h-6.893v-41.531c0-10.594 8.069-21.862 20.681-21.862 12.781 0 22.362 8.075 22.362 21.356 0 12.95-9.75 21.856-20.85 21.856-5.38 0-12.612-2.35-15.3-7.563zm28.92-14.293c0-9.081-5.882-14.463-16.307-13.956-5.044.168-12.781 3.868-12.106 16.812.169 4.206 4.537 12.106 14.125 12.106 8.237 0 14.287-4.706 14.287-14.962zM296.218 350.374h6.894v4.369c3.362-3.869 8.575-5.213 14.125-5.213v7.4c-.838-.168-9.082-1.175-14.125 9.582v24.718h-6.894v-40.856zM319.087 370.718c0-11.769 8.406-21.356 20.012-21.356 14.456 0 19.838 9.587 19.838 21.862v3.363h-32.282c.507 7.73 7.4 11.768 13.788 11.6 4.706-.17 7.9-1.513 11.262-4.876l4.544 4.707c-4.206 4.037-9.587 6.725-16.144 6.725-12.275-.169-21.018-9.244-21.018-22.025zm19.506-14.463c-6.556 0-11.6 5.719-11.938 11.938h25.05c0-6.05-4.368-11.938-13.112-11.938zM362.468 385.349l5.05-4.544c-.169 0 2.519 2.694 2.856 2.863 1.175 1.006 2.35 1.681 3.869 2.018 4.368 1.175 12.275.838 12.943-5.212.338-3.363-2.18-5.213-5.043-6.394-3.7-1.343-7.731-1.85-11.431-3.531-4.207-1.85-6.894-5.044-6.894-9.75 0-12.275 17.487-14.294 25.387-8.575.338.338 4.206 3.869 4.038 3.869l-5.044 4.031c-2.525-3.025-4.881-4.537-10.263-4.537-2.687 0-6.387 1.175-7.056 4.037-1.012 4.031 3.532 5.544 6.556 6.388 4.038 1.006 8.407 1.68 11.938 3.868 4.875 3.025 6.056 9.581 4.206 14.625-2.019 5.55-8.075 7.738-13.456 7.906-6.387.332-11.937-1.68-16.475-6.225-.337 0-1.181-.837-1.181-.837zM397.949 385.349l5.044-4.544c-.17 0 2.525 2.694 2.862 2.863 1.175 1.006 2.35 1.681 3.863 2.018 4.375 1.175 12.275.838 12.95-5.212.337-3.363-2.188-5.213-5.044-6.394-3.7-1.343-7.738-1.85-11.438-3.531-4.2-1.85-6.893-5.044-6.893-9.75 0-12.275 17.487-14.294 25.393-8.575.338.338 4.2 3.869 4.032 3.869l-5.044 4.031c-2.519-3.025-4.875-4.537-10.256-4.537-2.688 0-6.388 1.175-7.063 4.037-1.006 4.031 3.531 5.544 6.563 6.388 4.03 1.006 8.406 1.68 11.937 3.868 4.875 3.025 6.05 9.581 4.2 14.625-2.012 5.55-8.069 7.738-13.45 7.906-6.387.332-11.937-1.68-16.481-6.225-.331 0-1.175-.837-1.175-.837zM430.73 350.368v-4.369h-1.512v-.844h4.037V346h-1.519v4.369h-1.006zM438.293 350.368v-4.031l-1.513 4.03h-.337l-1.513-4.03v4.03h-.844v-5.212h1.35l1.344 3.532 1.344-3.532h1.344v5.213h-1.175zM118.143 391.061l-5.043-13.45H85.862l-5.044 13.45h-7.23l21.855-56.324h7.907l21.687 56.324h-6.894zm-19-48.256l-10.256 27.913h21.356l-11.1-27.913zM129.58 334.737h7.063v56.33h-7.062zM147.237 351.212h7.063v39.85h-7.063zM161.03 338.268v-.675c-5.38-.169-9.755-4.538-9.924-9.919H150.1c-.17 5.381-4.544 9.75-9.92 9.919v.675c5.376.169 9.75 4.537 9.92 9.919h1.006c.169-5.382 4.544-9.75 9.925-9.92z" fill="#fff" fill-rule="nonzero"/></svg>